<svg id="Layer_1" data-name="Layer 1" xmlns="http://www.w3.org/2000/svg" viewBox="0 0 38.54232 40.68713"><defs><style>.cls-1{fill:#010101;}</style></defs><title>Untitled-2</title><path class="cls-1" d="M38.18127,9.80611A1.39475,1.39475,0,0,0,36.54874,8.559C36.499,8.56762,33.56456,9.07733,29.823,9.49115l-0.01159-.03409c-1.378-4.00315-2.9451-8.54079-8.1372-8.54079-5.49752,0-7.2064,5.27936-8.22446,8.43171l-0.0434.13476C9.70994,9.07052,6.85415,8.56762,6.80688,8.559a1.44132,1.44132,0,0,0-1.09441.2636,1.39034,1.39034,0,0,0-.54175.98352L2.41105,40.07881A1.39523,1.39523,0,0,0,3.9745,41.59136,165.30762,165.30762,0,0,1,21.63418,40.437a170.583,170.583,0,0,1,17.74694,1.15441,1.39363,1.39363,0,0,0,1.55981-1.51254ZM21.67418,3.70867c2.89238,0,3.96929,2.29927,5.28686,6.06086-1.75592.14362-3.57048,0.242-5.28322,0.242-1.77319,0-3.63252-.10271-5.42025-0.25C17.57036,5.845,18.87088,3.70867,21.67418,3.70867Z" transform="translate(-2.40489 -0.91628)"/></svg>