<svg id="Layer_1" data-name="Layer 1" xmlns="http://www.w3.org/2000/svg" viewBox="0 0 33.22871 33.22871"><defs><style>.cls-1{fill:#010101;}</style></defs><title>Untitled-2</title><path class="cls-1" d="M21.258,40.21318A16.61435,16.61435,0,1,1,37.8742,23.59883,16.6334,16.6334,0,0,1,21.258,40.21318Zm0-30.43632a13.822,13.822,0,1,0,13.82378,13.822A13.83679,13.83679,0,0,0,21.258,9.77686Z" transform="translate(-4.64549 -6.98447)"/><path class="cls-1" d="M22.2804,33.64291H20.65878V31.42318q-4.46128-.37086-5.712-4.31948l2.58151-.59993a3.326,3.326,0,0,0,3.13053,2.72331V24.48765q-3.17962-.73355-4.13768-1.85432a3.9871,3.9871,0,0,1-.95988-2.68149q0-4.04406,5.09757-4.66853V13.55443H22.2804v1.72888A5.13687,5.13687,0,0,1,26.9962,18.9665l-2.43607.5163a2.57,2.57,0,0,0-2.27972-1.99067V21.6789a29.38062,29.38062,0,0,1,3.16689,1.0326A3.45254,3.45254,0,0,1,26.91984,24.115a4.54483,4.54483,0,0,1,.65083,2.44879,4.42333,4.42333,0,0,1-1.3562,3.31051,6.23189,6.23189,0,0,1-3.93407,1.5489v2.21973ZM20.65878,17.49213a2.95052,2.95052,0,0,0-1.74524.52176,1.73915,1.73915,0,0,0-.70173,1.50527q0,1.6798,2.447,2.00339V17.49213ZM22.2804,29.22708a2.86117,2.86117,0,0,0,1.89068-.65992,2.12273,2.12273,0,0,0,.75991-1.69252q0-1.7507-2.65059-2.24337v4.59581Z" transform="translate(-4.64549 -6.98447)"/></svg>