<svg id="Layer_1" data-name="Layer 1" xmlns="http://www.w3.org/2000/svg" viewBox="0 0 90.625 25.375"><defs><style>.cls-1,.cls-2{fill:#152b3c;}.cls-1{opacity:0;}.cls-3{fill:#f9b617;}.cls-4{fill:#050706;opacity:0.3;}.cls-5{fill:#eeeded;}</style></defs><title>logo1</title><rect class="cls-1" width="90.625" height="25.375"/><path class="cls-2" d="M48.786,18.80977H40.95379L43.47716,8.27048a1.64012,1.64012,0,0,1,1.39235-.77392h0.00077a1.63987,1.63987,0,0,1,1.39721.7823Z"/><polygon class="cls-3" points="48.786 18.81 40.954 18.81 41.414 16.889 48.319 16.889 48.786 18.81"/><path class="cls-4" d="M46.26748,8.27886a1.6399,1.6399,0,0,0-1.39721-.7823H44.86963l1.86394,7.79374a1.79628,1.79628,0,0,1-1.747,2.21408H41.26633l-0.31254,1.30538H48.786Z"/><path class="cls-4" d="M46.26719,11.79523a0.7201,0.7201,0,0,0-.96521.04814l-0.00141.00139a0.7201,0.7201,0,0,0-.04812.96521L47.105,15.07417a0.72015,0.72015,0,0,0,1.06657.0532l0.413-.413a0.72015,0.72015,0,0,0-.05318-1.06657Z"/><path class="cls-4" d="M44.44956,11.84337a0.72017,0.72017,0,0,0-.96525-0.04814l-2.26416,1.85254a0.72015,0.72015,0,0,0-.0532,1.06657l0.413,0.413a0.72012,0.72012,0,0,0,1.06655-.0532L44.49906,12.81a0.72008,0.72008,0,0,0-.04814-0.96521Z"/><path class="cls-5" d="M44.4086,10.54661a0.24712,0.24712,0,0,1-.17529-0.07264l-0.611-.61107a0.24787,0.24787,0,0,1,.35054-0.35054l0.61107,0.611A0.24792,0.24792,0,0,1,44.4086,10.54661Z"/><path class="cls-5" d="M45.954,12.09189a0.2471,0.2471,0,0,1-.17527-0.07261l-0.62279-.62267a0.24789,0.24789,0,0,1,.35056-0.35057l0.62279,0.62267A0.24789,0.24789,0,0,1,45.954,12.09189Z"/><path class="cls-5" d="M45.33109,10.54672a0.2479,0.2479,0,0,1-.17527-0.42318l0.61746-.61746a0.24788,0.24788,0,1,1,.35056.35054l-0.61746.61749A0.24715,0.24715,0,0,1,45.33109,10.54672Z"/><path class="cls-5" d="M43.79039,12.08744a0.24791,0.24791,0,0,1-.17527-0.42318l0.61819-.61833a0.24789,0.24789,0,1,1,.35056.35057l-0.61821.6183A0.24708,0.24708,0,0,1,43.79039,12.08744Z"/><circle class="cls-3" cx="44.8699" cy="10.75999" r="0.65268"/><path class="cls-3" d="M41.99384,6.45751a0.72014,0.72014,0,0,0-1.06655-.05318l-0.413.41307a0.72012,0.72012,0,0,0,.0532,1.06655l2.26419,1.85254a0.72013,0.72013,0,0,0,.96523-0.04814l0.00136-.00139a0.7201,0.7201,0,0,0,.04814-0.96523Z"/><path class="cls-4" d="M40.51428,7.2525l0.413-.413a0.72014,0.72014,0,0,1,1.06657.05318l1.85251,2.26421a0.71767,0.71767,0,0,1,.12772.23387,0.71734,0.71734,0,0,0-.12772-0.669L41.99386,6.45751a0.72012,0.72012,0,0,0-1.06657-.05315l-0.413.413a0.71686,0.71686,0,0,0-.17443.72646A0.71121,0.71121,0,0,1,40.51428,7.2525Z"/><path class="cls-3" d="M45.95465,9.68834a0.72013,0.72013,0,0,0,.96523.04814l2.26419-1.85254a0.72012,0.72012,0,0,0,.0532-1.06655l-0.413-.41307a0.72016,0.72016,0,0,0-1.06657.05318L45.90514,8.72172a0.72013,0.72013,0,0,0,.04812.96523Z"/><path class="cls-4" d="M49.23729,6.81737l-0.41307-.413A0.71448,0.71448,0,0,0,48.216,6.2039a0.71478,0.71478,0,0,1,.3907.20046l0.41306,0.413a0.72016,0.72016,0,0,1-.05322,1.06657L46.70229,9.73651a0.71554,0.71554,0,0,1-.34261.15221,0.716,0.716,0,0,0,.56017-0.15221l2.26421-1.85256A0.72017,0.72017,0,0,0,49.23729,6.81737Z"/><path class="cls-3" d="M43.79686,11.84337a0.72013,0.72013,0,0,0-.96523-0.04814l-2.26419,1.85254a0.72015,0.72015,0,0,0-.0532,1.06657l0.413,0.413a0.72012,0.72012,0,0,0,1.06655-.0532L43.84637,12.81a0.72008,0.72008,0,0,0-.04814-0.96521Z"/><path class="cls-4" d="M43.79825,11.84476l-0.00139-.00136a0.72013,0.72013,0,0,0-.73137-0.17587,0.71365,0.71365,0,0,1,.29625.17587l0.00138,0.00136a0.72012,0.72012,0,0,1,.04812.96523L41.55873,15.0742a0.71238,0.71238,0,0,1-.3401.22761,0.718,0.718,0,0,0,.77523-0.22761L43.84637,12.81A0.72013,0.72013,0,0,0,43.79825,11.84476Z"/><path class="cls-3" d="M46.91987,11.79523a0.72013,0.72013,0,0,0-.96523.04814l-0.00139.00139a0.7201,0.7201,0,0,0-.04812.96521l1.85251,2.26421a0.72014,0.72014,0,0,0,1.06657.0532l0.413-.413a0.72015,0.72015,0,0,0-.0532-1.06657Z"/><path class="cls-4" d="M49.18407,13.64771l-2.26421-1.85246a0.72,0.72,0,0,0-.96521.04814l-0.00139.00136a0.71747,0.71747,0,0,0-.09551.12068,0.71926,0.71926,0,0,1,.84455.04738l2.26421,1.85246a0.72022,0.72022,0,0,1,.05322,1.06662l0.21757-.21756A0.72022,0.72022,0,0,0,49.18407,13.64771Z"/><path class="cls-2" d="M50.309,19.1816H39.43084a0.37186,0.37186,0,0,1,0-.74372H50.309A0.37186,0.37186,0,1,1,50.309,19.1816Z"/><path class="cls-2" d="M14.73047,16.06273V11.49029L12.25934,17.08H11.11925l-2.4705-5.58966v4.57243H9.30823V17.08h-2.918V16.06273H7.0497V10.27128H6.39022V9.254H9.17391l2.5157,5.64568L14.19385,9.254h2.79451v1.01723h-0.6703v5.79145h0.6703V17.08H14.05954V16.06273h0.67094Z"/><path class="cls-2" d="M21.6175,9.254v1.01723H20.958v5.79145H21.6175V17.08h-2.918V16.06273H19.359V10.27128H18.6995V9.254h2.918Z"/><path class="cls-2" d="M23.32864,16.06273h0.65948V10.27128H23.32864V9.254h2.918v1.01723H25.58717v5.55656h2.75V15.22437h1.30814V17.08H23.32864V16.06273Z"/><path class="cls-2" d="M30.46849,16.06273H31.128V10.27128H30.46849V9.254h2.918v1.01723H32.727v5.55656h2.75V15.22437h1.30814V17.08H30.46849V16.06273Z"/><path class="cls-2" d="M56.67732,10.62871a1.688,1.688,0,0,0-.46915-0.16169,3.23052,3.23052,0,0,0-.61492-0.05029,0.98769,0.98769,0,0,0-.755.25717,0.928,0.928,0,0,0-.24.65948,0.78862,0.78862,0,0,0,.268.62574,2.611,2.611,0,0,0,.67667.41377q0.40772,0.17951.88291,0.3412a4.55246,4.55246,0,0,1,.88355.408,2.24069,2.24069,0,0,1,.676.62065,1.62069,1.62069,0,0,1,.26863.96694,2.2726,2.2726,0,0,1-.22407,1.023,2.35766,2.35766,0,0,1-.60346.77151,2.75656,2.75656,0,0,1-.88291.49143,3.23071,3.23071,0,0,1-1.06242.17378,4.58917,4.58917,0,0,1-1.39726-.19033A4.5033,4.5033,0,0,1,52.9547,16.431V14.74281h1.30814v0.96185a2.68225,2.68225,0,0,0,1.16236.212,1.31934,1.31934,0,0,0,.88928-0.30173,1.00755,1.00755,0,0,0,.352-0.80462,0.67075,0.67075,0,0,0-.27372-0.56463,3.06807,3.06807,0,0,0-.67667-0.3743q-0.402-.16805-0.88291-0.33038a3.71829,3.71829,0,0,1-.88355-0.43032,2.46367,2.46367,0,0,1-.676-0.6703,1.83378,1.83378,0,0,1-.27436-1.051,2.19729,2.19729,0,0,1,.19033-0.92811,2.00519,2.00519,0,0,1,.52516-0.69895,2.448,2.448,0,0,1,.783-0.44114,2.854,2.854,0,0,1,.95039-0.15659,5.48942,5.48942,0,0,1,.77661.05029A4.26746,4.26746,0,0,1,56.8842,9.36a3.496,3.496,0,0,1,.57609.23489,6.07282,6.07282,0,0,1,.52516.30746v1.68817H56.67732V10.62871Z"/><path class="cls-2" d="M67.89208,9.25373V10.271H67.232v5.79145h0.66012v1.01723h-2.918V16.06241h0.65948V13.737H61.93321v2.32537h0.65948v1.01723h-2.918V16.06241h0.65948V10.271H59.67469V9.25373h2.918V10.271H61.93321v2.214h3.70034V10.271H64.97407V9.25373h2.918Z"/><path class="cls-2" d="M69.06505,11.546a3.74042,3.74042,0,0,1,.8269-1.26931,3.6684,3.6684,0,0,1,1.28013-.8218,4.54582,4.54582,0,0,1,1.65506-.29027,4.49918,4.49918,0,0,1,1.6487.29027A3.64891,3.64891,0,0,1,76.58859,11.546a4.59131,4.59131,0,0,1,0,3.24711,3.661,3.661,0,0,1-2.11275,2.08538,4.49921,4.49921,0,0,1-1.6487.29091,4.54586,4.54586,0,0,1-1.65506-.29091,3.6684,3.6684,0,0,1-1.28013-.8218,3.75329,3.75329,0,0,1-.8269-1.26358A4.59131,4.59131,0,0,1,69.06505,11.546Zm1.487,2.72767a2.6119,2.6119,0,0,0,.51371.86636,2.41481,2.41481,0,0,0,.77724.57036,2.32138,2.32138,0,0,0,.98413.20625,2.38412,2.38412,0,0,0,1-.20625A2.32862,2.32862,0,0,0,74.60443,15.14a2.66712,2.66712,0,0,0,.50861-0.86636,3.41134,3.41134,0,0,0,0-2.214,2.67382,2.67382,0,0,0-.50861-0.86636,2.31824,2.31824,0,0,0-.77724-0.56972,2.3746,2.3746,0,0,0-1-.20688,2.31213,2.31213,0,0,0-.98413.20688,2.40362,2.40362,0,0,0-.77724.56972,2.61833,2.61833,0,0,0-.51371.86636A3.41134,3.41134,0,0,0,70.55206,14.27367Z"/><path class="cls-2" d="M81.63,9.25373a2.818,2.818,0,0,1,1.05606.19033,2.45769,2.45769,0,0,1,.8218.53089,2.354,2.354,0,0,1,.53662.81607,2.9652,2.9652,0,0,1,0,2.09047,2.30386,2.30386,0,0,1-.53662.811,2.50409,2.50409,0,0,1-.8218.52516A2.818,2.818,0,0,1,81.63,14.408H80.02009v1.65443h0.65948v1.01723h-2.918V16.06241H78.421V10.271H77.76157V9.25373H81.63Zm-1.60987,3.90213h1.431a1.108,1.108,0,0,0,.86636-0.36921,1.373,1.373,0,0,0,.32974-0.95039,1.389,1.389,0,0,0-.32974-0.96121,1.10588,1.10588,0,0,0-.86636-0.36921h-1.431v2.65Z"/></svg>