<svg id="Layer_1" data-name="Layer 1" xmlns="http://www.w3.org/2000/svg" viewBox="0 0 66.375 27.9375"><defs><style>.cls-1{fill:#152b3c;opacity:0;}.cls-2{fill:#fff;}</style></defs><title>logogray</title><rect class="cls-1" x="0.00001" width="66.375" height="27.9375"/><circle class="cls-2" cx="12.43762" cy="9.6317" r="0.93774"/><path class="cls-2" d="M23.3772,24.63683H20.72693L19.4787,19.41759a1.6809,1.6809,0,0,0,1.08917-.48669l0.83057-.83105a1.69846,1.69846,0,0,0-.12549-2.51514L17.90259,12.8272,16.75916,8.04583,21.273,4.35277a1.69846,1.69846,0,0,0,.12549-2.51514l-0.83057-.83057a1.69836,1.69836,0,0,0-2.51562.12549L15.59088,4.14061A4.01611,4.01611,0,0,0,12.4383,2.63048H12.43677A4.02059,4.02059,0,0,0,9.3089,4.10924L6.87329,1.13268a1.69836,1.69836,0,0,0-2.51514-.126l-0.83057.83105a1.69742,1.69742,0,0,0,.12549,2.51514L8.12824,8.0147,6.99286,12.75689,3.62708,15.51061a1.69846,1.69846,0,0,0-.12549,2.51514l0.83105,0.83057a1.68059,1.68059,0,0,0,1.08344.48615L4.1485,24.63683H1.49793a1.49789,1.49789,0,1,0,0,2.99579H23.3772A1.49789,1.49789,0,1,0,23.3772,24.63683ZM8.81171,8.38109a1.538,1.538,0,0,0,1.24457-.1131l0.89453,0.89459a1.687,1.687,0,0,1,.70508-0.70508l-0.89551-.89545a1.67562,1.67562,0,0,0-.161-1.87567l-0.8-.97772a3.29181,3.29181,0,0,1,2.63739-1.32819H12.4383a3.29131,3.29131,0,0,1,2.66064,1.36139l-0.77277.9444A1.67779,1.67779,0,0,0,14.145,7.53173l-0.92572.92578a1.68734,1.68734,0,0,1,.70526.7049l0.91168-.91174a1.49093,1.49093,0,0,0,1.23389.13831l0.87384,3.65387-0.22516-.1842a1.70071,1.70071,0,0,0-1.07471-.38379,1.68247,1.68247,0,0,0-.77539.19519l-0.94427-.944a1.68859,1.68859,0,0,1-.70508.705l0.94568,0.9455a1.67431,1.67431,0,0,0,.16119,1.87469l3.72607,4.5542a1.69329,1.69329,0,0,0,.62183.47192l0.71619,2.99475H5.48584l0.73438-3.06714a1.68973,1.68973,0,0,0,.62756-0.47412l3.72607-4.55371a1.67714,1.67714,0,0,0,.18127-1.84546l0.90057-.9007a1.68734,1.68734,0,0,1-.70483-0.70532l-0.8869.88715a1.683,1.683,0,0,0-.8075-0.21252,1.70252,1.70252,0,0,0-1.0752.38428l-0.22937.18768ZM23.3772,26.88262H1.49793a0.74789,0.74789,0,1,1,0-1.49579H23.3772A0.74789,0.74789,0,1,1,23.3772,26.88262Z" transform="translate(0 -0.3125)"/><path class="cls-2" d="M39.12705,11.85054V6.53621L36.255,13.03281H34.92989l-2.87135-6.4966v5.31433H32.825v1.18228H29.43356V11.85054H30.2V5.1194H29.43356V3.93712h3.23535l2.92388,6.56171,2.91056-6.56171h3.24793V5.1194H40.97223v6.73114h0.77906v1.18228h-3.404V11.85054h0.7798Z" transform="translate(0 -0.3125)"/><path class="cls-2" d="M47.40718,3.93712V5.1194H46.6407v6.73114h0.76648v1.18228H44.01572V11.85054H44.7822V5.1194H44.01572V3.93712h3.39146Z" transform="translate(0 -0.3125)"/><path class="cls-2" d="M49.67161,11.85054h0.76648V5.1194H49.67161V3.93712h3.39146V5.1194H52.29659v6.45813h3.19614V10.87616h1.52039v2.15666H49.67161V11.85054Z" transform="translate(0 -0.3125)"/><path class="cls-2" d="M58.096,11.85054H58.8625V5.1194H58.096V3.93712h3.39146V5.1194H60.721v6.45813h3.19614V10.87616h1.52039v2.15666H58.096V11.85054Z" transform="translate(0 -0.3125)"/><path class="cls-2" d="M33.58448,17.80645a1.96189,1.96189,0,0,0-.54527-0.18792,3.75469,3.75469,0,0,0-.71469-0.05845,1.14794,1.14794,0,0,0-.87746.2989,1.07858,1.07858,0,0,0-.27892.76648,0.91658,0.91658,0,0,0,.31148.72727,3.0346,3.0346,0,0,0,.78646.4809q0.47387,0.20864,1.02617.39656a5.29111,5.29111,0,0,1,1.02691.47424,2.60425,2.60425,0,0,1,.78572.72135,1.88365,1.88365,0,0,1,.31222,1.12383,2.64133,2.64133,0,0,1-.26043,1.18894,2.7402,2.7402,0,0,1-.70138.8967,3.20383,3.20383,0,0,1-1.02617.57116,3.75491,3.75491,0,0,1-1.23481.202,5.33378,5.33378,0,0,1-1.624-.22121,5.234,5.234,0,0,1-1.31249-.637V22.58809h1.52039V23.706a3.11745,3.11745,0,0,0,1.351.24637,1.53341,1.53341,0,0,0,1.03357-.35069,1.171,1.171,0,0,0,.40914-0.93517,0.77958,0.77958,0,0,0-.31813-0.65625,3.56587,3.56587,0,0,0-.78646-0.435q-0.46721-.19532-1.02617-0.384a4.3216,4.3216,0,0,1-1.02691-.50014,2.8634,2.8634,0,0,1-.78572-0.77906,2.13131,2.13131,0,0,1-.31887-1.22149,2.5538,2.5538,0,0,1,.22121-1.0787,2.33054,2.33054,0,0,1,.61037-0.81235,2.84523,2.84523,0,0,1,.91-0.51271,3.31709,3.31709,0,0,1,1.10459-.182,6.3801,6.3801,0,0,1,.90261.05845,4.95987,4.95987,0,0,1,.76648.16869,4.06324,4.06324,0,0,1,.66956.273,7.05816,7.05816,0,0,1,.61037.35735v1.96208H33.58448V17.80645Z" transform="translate(0 -0.3125)"/><path class="cls-2" d="M46.61888,16.20838v1.18228H45.85165v6.73114h0.76722v1.18228H43.22741V24.12179h0.76648V21.41913H39.69316v2.70266h0.76648v1.18228H37.06818V24.12179h0.76648V17.39065H37.06818V16.20838h3.39146v1.18228H39.69316v2.57319h4.30074V17.39065H43.22741V16.20838h3.39146Z" transform="translate(0 -0.3125)"/><path class="cls-2" d="M47.98217,18.87257a4.34731,4.34731,0,0,1,.96106-1.47526,4.26361,4.26361,0,0,1,1.48783-.95514,5.28339,5.28339,0,0,1,1.9236-.33737,5.22919,5.22919,0,0,1,1.91621.33737,4.241,4.241,0,0,1,2.45556,2.4304,5.33626,5.33626,0,0,1,0,3.774,4.255,4.255,0,0,1-2.45556,2.42374,5.22922,5.22922,0,0,1-1.91621.33811,5.28345,5.28345,0,0,1-1.9236-.33811,4.26361,4.26361,0,0,1-1.48783-.95514,4.36228,4.36228,0,0,1-.96106-1.4686A5.33626,5.33626,0,0,1,47.98217,18.87257Zm1.72828,3.17025a3.03569,3.03569,0,0,0,.59706,1.00693,2.80662,2.80662,0,0,0,.90335.6629,2.698,2.698,0,0,0,1.1438.23971,2.771,2.771,0,0,0,1.1623-.23971,2.70645,2.70645,0,0,0,.90335-0.6629,3.09987,3.09987,0,0,0,.59114-1.00693,3.96485,3.96485,0,0,0,0-2.57319,3.10766,3.10766,0,0,0-.59114-1.00693,2.69439,2.69439,0,0,0-.90335-0.66216,2.75989,2.75989,0,0,0-1.1623-.24045,2.68728,2.68728,0,0,0-1.1438.24045,2.79362,2.79362,0,0,0-.90335.66216,3.04316,3.04316,0,0,0-.59706,1.00693A3.96485,3.96485,0,0,0,49.71045,22.04282Z" transform="translate(0 -0.3125)"/><path class="cls-2" d="M62.58578,16.20838a3.2752,3.2752,0,0,1,1.22741.22121,2.85646,2.85646,0,0,1,.95514.617,2.736,2.736,0,0,1,.62369.94849,3.44631,3.44631,0,0,1,0,2.42966,2.67767,2.67767,0,0,1-.62369.94257,2.91039,2.91039,0,0,1-.95514.61037,3.2752,3.2752,0,0,1-1.22741.22121H60.7147v1.92286h0.76648v1.18228H58.08972V24.12179h0.76648V17.39065H58.08972V16.20838h4.49606ZM60.7147,20.74365h1.66318a1.28774,1.28774,0,0,0,1.00693-.42911,1.59573,1.59573,0,0,0,.38324-1.10459,1.61433,1.61433,0,0,0-.38324-1.11717,1.28531,1.28531,0,0,0-1.00693-.42911H60.7147v3.08Z" transform="translate(0 -0.3125)"/></svg>