<svg id="Layer_1" data-name="Layer 1" xmlns="http://www.w3.org/2000/svg" viewBox="0 0 32.01704 32.01795"><defs><style>.cls-1{fill:#010101;}</style></defs><title>Untitled-2</title><path class="cls-1" d="M19.04134,33.10329A12.02127,12.02127,0,1,1,31.0617,21.08111,12.03523,12.03523,0,0,1,19.04134,33.10329Zm0-21.25016a9.22888,9.22888,0,1,0,9.228,9.228A9.2394,9.2394,0,0,0,19.04134,11.85313Z" transform="translate(-7.02097 -9.06075)"/><path class="cls-1" d="M37.64272,41.07869a1.39736,1.39736,0,0,1-.989-0.409l-8.73349-8.73349a1.39733,1.39733,0,1,1,1.97794-1.97431l8.73349,8.73349A1.3962,1.3962,0,0,1,37.64272,41.07869Z" transform="translate(-7.02097 -9.06075)"/></svg>