<?xml version="1.0" encoding="utf-8"?>
<!-- Generator: Adobe Illustrator 19.2.1, SVG Export Plug-In . SVG Version: 6.00 Build 0)  -->
<svg version="1.1" id="Layer_1" xmlns="http://www.w3.org/2000/svg" xmlns:xlink="http://www.w3.org/1999/xlink" x="0px" y="0px"
	 viewBox="0 0 32 32" style="enable-background:new 0 0 32 32;" xml:space="preserve">
<title>Untitled-2</title>
<path d="M31.6,29.6l-8.4-8.4c1.8-2.2,2.9-5,2.9-8.1c0-7.2-5.9-13.1-13-13.1C5.9,0,0,5.9,0,13.1s5.9,13,13.1,13
	c3.1,0,5.9-1.1,8.1-2.9l8.4,8.4c0.3,0.3,0.6,0.4,1,0.4s0.7-0.1,1-0.4C32.2,31.1,32.2,30.2,31.6,29.6z M13.1,23.3
	c-5.7,0-10.3-4.6-10.3-10.3S7.4,2.8,13.1,2.8s10.2,4.6,10.2,10.3S18.7,23.3,13.1,23.3z"/>
</svg>
