<svg id="Layer_1" data-name="Layer 1" xmlns="http://www.w3.org/2000/svg" viewBox="0 0 90.625 44.5"><defs><style>.cls-1,.cls-2{fill:#152b3c;}.cls-1{opacity:0;}.cls-3{fill:#f9b617;}.cls-4{fill:#050706;opacity:0.3;}.cls-5{fill:#eeeded;}</style></defs><title>logo2</title><rect class="cls-1" width="90.625" height="44.5"/><path class="cls-2" d="M32.439,34.56376H16.686L21.76131,13.366a3.29878,3.29878,0,0,1,2.80045-1.55659H24.5633a3.29829,3.29829,0,0,1,2.81021,1.57344Z"/><polygon class="cls-3" points="32.439 34.564 16.686 34.564 17.611 30.701 31.499 30.701 32.439 34.564"/><path class="cls-4" d="M27.37351,13.38287a3.29835,3.29835,0,0,0-2.81021-1.57344H24.562L28.311,27.485a3.61288,3.61288,0,0,1-3.51382,4.4532h-7.4825L16.686,34.56376h15.753Z"/><path class="cls-4" d="M27.37292,20.45536a1.44835,1.44835,0,0,0-1.94132.09683l-0.00284.0028a1.44833,1.44833,0,0,0-.09679,1.94132l3.726,4.554a1.44844,1.44844,0,0,0,2.14521.107l0.83074-.83075a1.44844,1.44844,0,0,0-.107-2.14521Z"/><path class="cls-4" d="M23.7171,20.55219a1.44848,1.44848,0,0,0-1.94142-.09683l-4.55392,3.726a1.44844,1.44844,0,0,0-.107,2.14521l0.83075,0.83075a1.44838,1.44838,0,0,0,2.14515-.107l3.726-4.554a1.44829,1.44829,0,0,0-.09683-1.94132Z"/><path class="cls-5" d="M23.63472,17.944a0.497,0.497,0,0,1-.35257-0.1461l-1.229-1.229a0.49854,0.49854,0,1,1,.70505-0.705l1.229,1.229A0.49864,0.49864,0,0,1,23.63472,17.944Z"/><path class="cls-5" d="M26.743,21.05205a0.497,0.497,0,0,1-.35253-0.146l-1.25262-1.25237a0.49858,0.49858,0,1,1,.70509-0.70511l1.25262,1.25239A0.49859,0.49859,0,0,1,26.743,21.05205Z"/><path class="cls-5" d="M25.49012,17.94423a0.49859,0.49859,0,0,1-.35251-0.85115l1.2419-1.2419a0.49856,0.49856,0,1,1,.70509.70505l-1.2419,1.242A0.49708,0.49708,0,0,1,25.49012,17.94423Z"/><path class="cls-5" d="M22.39132,21.04309a0.49862,0.49862,0,0,1-.35253-0.85115l1.24336-1.24365a0.49858,0.49858,0,0,1,.70509.70511L22.74384,20.897A0.497,0.497,0,0,1,22.39132,21.04309Z"/><circle class="cls-3" cx="24.56254" cy="18.37319" r="1.31275"/><path class="cls-3" d="M18.77789,9.71957a1.44841,1.44841,0,0,0-2.14515-.107l-0.83075.83081a1.44838,1.44838,0,0,0,.107,2.14515l4.554,3.726a1.44841,1.44841,0,0,0,1.94137-.09683l0.00274-.0028a1.44835,1.44835,0,0,0,.09683-1.94137Z"/><path class="cls-4" d="M15.802,11.31855l0.8307-.83075a1.44843,1.44843,0,0,1,2.14521.107l3.726,4.554a1.44345,1.44345,0,0,1,.25689.47039,1.44279,1.44279,0,0,0-.25689-1.34557l-3.726-4.554a1.44839,1.44839,0,0,0-2.14521-.1069l-0.8307.8307a1.44182,1.44182,0,0,0-.35083,1.46114A1.43047,1.43047,0,0,1,15.802,11.31855Z"/><path class="cls-3" d="M26.7443,16.21776a1.44841,1.44841,0,0,0,1.94137.09683l4.554-3.726a1.44838,1.44838,0,0,0,.107-2.14515L32.5159,9.61262a1.44846,1.44846,0,0,0-2.14519.107l-3.726,4.554A1.44841,1.44841,0,0,0,26.7415,16.215Z"/><path class="cls-4" d="M33.3467,10.44337l-0.83081-.8307a1.437,1.437,0,0,0-1.22341-.40318,1.43764,1.43764,0,0,1,.78583.40318l0.83079,0.8307a1.44847,1.44847,0,0,1-.10705,2.14521l-4.554,3.72607a1.43917,1.43917,0,0,1-.68909.30614,1.44015,1.44015,0,0,0,1.12667-.30614l4.554-3.72607A1.44848,1.44848,0,0,0,33.3467,10.44337Z"/><path class="cls-3" d="M22.40433,20.55219a1.44841,1.44841,0,0,0-1.94137-.09683l-4.554,3.726a1.44844,1.44844,0,0,0-.107,2.14521l0.83075,0.83075a1.44838,1.44838,0,0,0,2.14515-.107l3.726-4.554a1.44829,1.44829,0,0,0-.09683-1.94132Z"/><path class="cls-4" d="M22.40713,20.555l-0.0028-.00274a1.4484,1.4484,0,0,0-1.471-.35372,1.43538,1.43538,0,0,1,.59585.35372L21.53195,20.555a1.44839,1.44839,0,0,1,.09679,1.94137l-3.726,4.554a1.43282,1.43282,0,0,1-.684.45779,1.44419,1.44419,0,0,0,1.55923-.45779l3.726-4.554A1.4484,1.4484,0,0,0,22.40713,20.555Z"/><path class="cls-3" d="M28.68567,20.45536a1.44841,1.44841,0,0,0-1.94137.09683l-0.0028.0028a1.44835,1.44835,0,0,0-.09678,1.94132l3.726,4.554a1.44842,1.44842,0,0,0,2.14519.107l0.83075-.83075a1.44844,1.44844,0,0,0-.107-2.14521Z"/><path class="cls-4" d="M33.23965,24.18128l-4.554-3.72587a1.44808,1.44808,0,0,0-1.94132.09683l-0.0028.00274a1.44306,1.44306,0,0,0-.19211.24272A1.44666,1.44666,0,0,1,28.248,20.893l4.554,3.72587a1.44858,1.44858,0,0,1,.10705,2.1453l0.4376-.43758A1.44859,1.44859,0,0,0,33.23965,24.18128Z"/><path class="cls-2" d="M35.50217,35.31163H13.62292a0.74792,0.74792,0,1,1,0-1.49585H35.50217A0.74792,0.74792,0,1,1,35.50217,35.31163Z"/><path class="cls-2" d="M51.26381,20.2795V14.96518l-2.87209,6.4966H47.06666l-2.87135-6.4966V20.2795h0.76648v1.18228H41.57033V20.2795h0.76648V13.54837H41.57033V12.36609h3.23535l2.92388,6.56171,2.91056-6.56171h3.24793v1.18228H53.109V20.2795h0.77906v1.18228H50.484V20.2795h0.7798Z"/><path class="cls-2" d="M59.54395,12.36609v1.18228H58.77746V20.2795h0.76648v1.18228H56.15248V20.2795H56.919V13.54837H56.15248V12.36609h3.39146Z"/><path class="cls-2" d="M61.80837,20.2795h0.76648V13.54837H61.80837V12.36609h3.39146v1.18228H64.43335V20.0065H67.6295V19.30512h1.52039v2.15666H61.80837V20.2795Z"/><path class="cls-2" d="M70.23278,20.2795h0.76648V13.54837H70.23278V12.36609h3.39146v1.18228H72.85776V20.0065H76.0539V19.30512h1.52039v2.15666H70.23278V20.2795Z"/><path class="cls-2" d="M45.72124,26.23542a1.96189,1.96189,0,0,0-.54527-0.18792,3.75469,3.75469,0,0,0-.71469-0.05845,1.14794,1.14794,0,0,0-.87746.2989,1.07858,1.07858,0,0,0-.27892.76648,0.91658,0.91658,0,0,0,.31148.72727,3.0346,3.0346,0,0,0,.78646.4809q0.47387,0.20864,1.02617.39656a5.29111,5.29111,0,0,1,1.02691.47424,2.60425,2.60425,0,0,1,.78572.72135,1.88365,1.88365,0,0,1,.31222,1.12383,2.64133,2.64133,0,0,1-.26043,1.18894,2.7402,2.7402,0,0,1-.70138.8967,3.20383,3.20383,0,0,1-1.02617.57116,3.75491,3.75491,0,0,1-1.23481.202,5.33378,5.33378,0,0,1-1.624-.22121,5.234,5.234,0,0,1-1.31249-.637V31.01705H42.915V32.135a3.11745,3.11745,0,0,0,1.351.24637,1.53341,1.53341,0,0,0,1.03357-.35069,1.171,1.171,0,0,0,.40914-0.93517,0.77958,0.77958,0,0,0-.31813-0.65625,3.56587,3.56587,0,0,0-.78646-0.435q-0.46721-.19532-1.02617-0.384a4.3216,4.3216,0,0,1-1.02691-.50014,2.8634,2.8634,0,0,1-.78572-0.77906,2.13131,2.13131,0,0,1-.31887-1.22149,2.5538,2.5538,0,0,1,.22121-1.0787,2.33054,2.33054,0,0,1,.61037-0.81235,2.84523,2.84523,0,0,1,.91-0.51271,3.31709,3.31709,0,0,1,1.10459-.182,6.3801,6.3801,0,0,1,.90261.05845,4.95987,4.95987,0,0,1,.76648.16869,4.06324,4.06324,0,0,1,.66956.273,7.05816,7.05816,0,0,1,.61037.35735v1.96208H45.72124V26.23542Z"/><path class="cls-2" d="M58.75564,24.63734v1.18228H57.98842v6.73114h0.76722V33.733H55.36417V32.55076h0.76648V29.84809H51.82992v2.70266H52.5964V33.733H49.20494V32.55076h0.76648V25.81962H49.20494V24.63734H52.5964v1.18228H51.82992v2.57319h4.30074V25.81962H55.36417V24.63734h3.39146Z"/><path class="cls-2" d="M60.11893,27.30154A4.34731,4.34731,0,0,1,61.08,25.82628a4.26361,4.26361,0,0,1,1.48783-.95514,5.28339,5.28339,0,0,1,1.9236-.33737,5.22919,5.22919,0,0,1,1.91621.33737,4.241,4.241,0,0,1,2.45556,2.4304,5.33626,5.33626,0,0,1,0,3.774,4.255,4.255,0,0,1-2.45556,2.42374,5.22922,5.22922,0,0,1-1.91621.33811,5.28345,5.28345,0,0,1-1.9236-.33811A4.26361,4.26361,0,0,1,61.08,32.5441a4.36228,4.36228,0,0,1-.96106-1.4686A5.33626,5.33626,0,0,1,60.11893,27.30154Zm1.72828,3.17025a3.03569,3.03569,0,0,0,.59706,1.00693,2.80662,2.80662,0,0,0,.90335.6629,2.698,2.698,0,0,0,1.1438.23971,2.771,2.771,0,0,0,1.1623-.23971,2.70645,2.70645,0,0,0,.90335-0.6629,3.09987,3.09987,0,0,0,.59114-1.00693,3.96485,3.96485,0,0,0,0-2.57319,3.10766,3.10766,0,0,0-.59114-1.00693,2.69439,2.69439,0,0,0-.90335-0.66216,2.75989,2.75989,0,0,0-1.1623-.24045,2.68728,2.68728,0,0,0-1.1438.24045,2.79362,2.79362,0,0,0-.90335.66216,3.04316,3.04316,0,0,0-.59706,1.00693A3.96485,3.96485,0,0,0,61.84722,30.47178Z"/><path class="cls-2" d="M74.72254,24.63734a3.2752,3.2752,0,0,1,1.22741.22121,2.85646,2.85646,0,0,1,.95514.617,2.736,2.736,0,0,1,.62369.94849,3.44631,3.44631,0,0,1,0,2.42966,2.67767,2.67767,0,0,1-.62369.94257,2.91039,2.91039,0,0,1-.95514.61037,3.2752,3.2752,0,0,1-1.22741.22121H72.85147v1.92286h0.76648V33.733H70.22649V32.55076H70.993V25.81962H70.22649V24.63734h4.49606Zm-1.87108,4.53527h1.66318a1.28774,1.28774,0,0,0,1.00693-.42911,1.59573,1.59573,0,0,0,.38324-1.10459,1.61433,1.61433,0,0,0-.38324-1.11717,1.28531,1.28531,0,0,0-1.00693-.42911H72.85147v3.08Z"/></svg>