<svg id="Layer_1" data-name="Layer 1" xmlns="http://www.w3.org/2000/svg" viewBox="0 0 90.625 44.5"><defs><style>.cls-1{fill:#152b3c;opacity:0;}.cls-2{fill:#231f20;}.cls-3,.cls-4{fill:#fff;}.cls-4,.cls-5{stroke:#231f20;}.cls-4{stroke-miterlimit:10;stroke-width:0.75px;}.cls-5{fill:none;stroke-linejoin:round;stroke-width:0.5px;}</style></defs><title>logogray</title><rect class="cls-1" width="90.625" height="44.5"/><path class="cls-2" d="M16.21045,34.939l5.2002-21.71924,0.03223-.05176a3.67328,3.67328,0,0,1,6.25.01855l0.03125,0.05078L32.91406,34.939H16.21045Z"/><path class="cls-3" d="M24.5633,11.80944a3.29828,3.29828,0,0,1,2.81021,1.57344L32.439,34.56377H16.686L21.76131,13.366a3.29877,3.29877,0,0,1,2.80045-1.55658H24.5633m0-.75H24.56176a4.02551,4.02551,0,0,0-3.43714,1.91019l-0.06435.10335-0.02835.11841L15.95665,34.38914l-0.22138.92463H33.38955l-0.22109-.92445L28.10294,13.20843l-0.02781-.11628-0.06258-.10187a4.022,4.022,0,0,0-3.44925-1.93084h0Z"/><polygon class="cls-3" points="32.6 34.564 16.6 34.564 17.459 30.701 31.706 30.701 32.6 34.564"/><path class="cls-3" d="M23.63472,17.944a0.497,0.497,0,0,1-.35257-0.1461l-1.229-1.229a0.49854,0.49854,0,1,1,.70505-0.705l1.229,1.229A0.49864,0.49864,0,0,1,23.63472,17.944Z"/><path class="cls-3" d="M26.743,21.05205a0.497,0.497,0,0,1-.35253-0.146l-1.25262-1.25237a0.49858,0.49858,0,1,1,.70509-0.70511l1.25262,1.25239A0.49859,0.49859,0,0,1,26.743,21.05205Z"/><path class="cls-3" d="M25.49012,17.94423a0.49859,0.49859,0,0,1-.35251-0.85115l1.2419-1.2419a0.49856,0.49856,0,1,1,.70509.70505l-1.2419,1.242A0.49708,0.49708,0,0,1,25.49012,17.94423Z"/><path class="cls-3" d="M22.39132,21.04309a0.49862,0.49862,0,0,1-.35253-0.85115l1.24336-1.24365a0.49858,0.49858,0,0,1,.70509.70511L22.74384,20.897A0.497,0.497,0,0,1,22.39132,21.04309Z"/><circle class="cls-4" cx="24.56254" cy="18.37319" r="1.31275"/><path class="cls-3" d="M27.76855,16.89209a1.70147,1.70147,0,0,1-1.31738-2.77686l3.72607-4.55371A1.69836,1.69836,0,0,1,32.69287,9.436l0.83057,0.83057a1.69846,1.69846,0,0,1-.12549,2.51514l-4.5542,3.72607a1.70152,1.70152,0,0,1-1.0752.38428h0Z"/><path class="cls-2" d="M31.49229,9.18838a1.44187,1.44187,0,0,1,1.02361.42424l0.83075,0.8308a1.44838,1.44838,0,0,1-.107,2.14516l-4.554,3.726a1.44839,1.44839,0,0,1-1.94137-.09684L26.74151,16.215a1.44841,1.44841,0,0,1-.09678-1.94137l3.726-4.554a1.4436,1.4436,0,0,1,1.12158-.53119m0-.5a1.94192,1.94192,0,0,0-1.50854.71455l-3.726,4.55405a1.95046,1.95046,0,0,0,2.74454,2.7446l4.554-3.726a1.94836,1.94836,0,0,0,.14393-2.88569l-0.83074-.83079a1.935,1.935,0,0,0-1.37717-.5707h0Z"/><path class="cls-5" d="M33.3467,10.44337l-0.83081-.8307a1.86373,1.86373,0,0,0-2.13158-.25581,1.335,1.335,0,0,1,1.694.25581l0.83079,0.8307a1.44847,1.44847,0,0,1-.10705,2.14521l-4.554,3.72607a1.23049,1.23049,0,0,1-1.2951.3677,1.96288,1.96288,0,0,0,1.73268-.3677l4.554-3.72607A1.44848,1.44848,0,0,0,33.3467,10.44337Z"/><path class="cls-3" d="M31.49268,27.85742a1.69318,1.69318,0,0,1-1.31543-.623l-3.72607-4.5542a1.70033,1.70033,0,0,1,2.39258-2.39258l4.5542,3.72607a1.69846,1.69846,0,0,1,.12549,2.51514l-0.83057.83105A1.68653,1.68653,0,0,1,31.49268,27.85742Z"/><path class="cls-2" d="M27.76881,20.15356a1.444,1.444,0,0,1,.91685.32741l4.554,3.726a1.44838,1.44838,0,0,1,.107,2.14516l-0.83075.8308a1.44843,1.44843,0,0,1-2.14519-.107l-3.726-4.554a1.44841,1.44841,0,0,1,.09678-1.94137l0.00279-.00279a1.44581,1.44581,0,0,1,1.02452-.42424m0.00013-.5h0a1.95139,1.95139,0,0,0-1.51114,3.185l3.726,4.554a1.94842,1.94842,0,0,0,2.88572.14388l0.83076-.83081a1.94837,1.94837,0,0,0-.144-2.88569l-4.554-3.726a1.953,1.953,0,0,0-1.23334-.44043h0Z"/><path class="cls-5" d="M33.3467,26.35219l-0.83081.8307a1.86373,1.86373,0,0,1-2.13158.25581,1.335,1.335,0,0,0,1.694-.25581l0.83079-.8307a1.44847,1.44847,0,0,0-.10705-2.14521l-4.554-3.72607a1.23049,1.23049,0,0,0-1.2951-.3677,1.96288,1.96288,0,0,1,1.73268.3677l4.554,3.72607A1.44848,1.44848,0,0,1,33.3467,26.35219Z"/><path class="cls-3" d="M21.407,16.89171a1.703,1.703,0,0,1-1.0752-.38379l-4.55371-3.72607a1.69742,1.69742,0,0,1-.12549-2.51514l0.83057-.83105a1.69836,1.69836,0,0,1,2.51514.126l3.72607,4.55371A1.70095,1.70095,0,0,1,21.407,16.89171h0Z"/><path class="cls-2" d="M17.68353,9.1884a1.44362,1.44362,0,0,1,1.12156.53123l3.726,4.554a1.44842,1.44842,0,0,1-.09684,1.94137l-0.00279.00279a1.44838,1.44838,0,0,1-1.94137.09678l-4.554-3.726a1.44846,1.44846,0,0,1-.107-2.14519l0.83081-.83075a1.44167,1.44167,0,0,1,1.0236-.42424m0-.5a1.93492,1.93492,0,0,0-1.37715.57069l-0.8308.83073a1.94846,1.94846,0,0,0,.14385,2.88572l4.55405,3.726a1.95058,1.95058,0,0,0,2.7446-2.74453l-3.726-4.554a1.94177,1.94177,0,0,0-1.50853-.71461h0Z"/><path class="cls-5" d="M16.65988,9.61258l-0.8307.83081a1.86373,1.86373,0,0,0-.25581,2.13158,1.335,1.335,0,0,1,.25581-1.694l0.8307-.83079a1.44847,1.44847,0,0,1,2.14521.10705l3.72607,4.554a1.23049,1.23049,0,0,1,.3677,1.2951,1.96288,1.96288,0,0,0-.3677-1.73268l-3.72607-4.554A1.44848,1.44848,0,0,0,16.65988,9.61258Z"/><path class="cls-3" d="M17.65785,27.78285a1.68653,1.68653,0,0,1-1.2002-.49756l-0.83105-.83057a1.69846,1.69846,0,0,1,.12549-2.51514l4.5542-3.72607a1.70042,1.70042,0,0,1,2.39258,2.39258L18.97279,27.1598a1.69123,1.69123,0,0,1-1.31445.623H17.65785Z"/><path class="cls-2" d="M21.38129,20.07936a1.44569,1.44569,0,0,1,1.02452.42424l0.00279,0.00279a1.44841,1.44841,0,0,1,.09678,1.94137l-3.726,4.554a1.44843,1.44843,0,0,1-2.14519.107l-0.83075-.8308a1.44839,1.44839,0,0,1,.107-2.14516l4.554-3.726a1.44412,1.44412,0,0,1,.91685-0.32741m0-.5a1.95315,1.95315,0,0,0-1.23347.44043l-4.554,3.726a1.94837,1.94837,0,0,0-.14392,2.88569l0.83074,0.83079a1.94842,1.94842,0,0,0,2.88572-.14386l3.726-4.554a1.95139,1.95139,0,0,0-1.51107-3.185h0Z"/><path class="cls-5" d="M15.8034,26.278l0.83081,0.8307a1.86373,1.86373,0,0,0,2.13158.25581,1.335,1.335,0,0,1-1.694-.25581L16.241,26.278a1.44847,1.44847,0,0,1,.10705-2.14521l4.554-3.72607a1.23049,1.23049,0,0,1,1.2951-.3677,1.96288,1.96288,0,0,0-1.73268.3677l-4.554,3.72607A1.44848,1.44848,0,0,0,15.8034,26.278Z"/><path class="cls-2" d="M13.623,35.68652a1.1228,1.1228,0,1,1,0-2.24561H35.502a1.1228,1.1228,0,1,1,0,2.24561H13.623Z"/><path class="cls-3" d="M35.50217,33.81578a0.74792,0.74792,0,1,1,0,1.49584H13.62293a0.74792,0.74792,0,1,1,0-1.49584H35.50217m0-.75H13.62293a1.49792,1.49792,0,1,0,0,2.99584H35.50217a1.49792,1.49792,0,1,0,0-2.99584h0Z"/><path class="cls-3" d="M51.26381,20.2795V14.96518l-2.87209,6.4966H47.06666l-2.87135-6.4966V20.2795h0.76648v1.18228H41.57033V20.2795h0.76648V13.54837H41.57033V12.36609h3.23535l2.92388,6.56171,2.91056-6.56171h3.24793v1.18228H53.109V20.2795h0.77906v1.18228H50.484V20.2795h0.7798Z"/><path class="cls-3" d="M59.54395,12.36609v1.18228H58.77746V20.2795h0.76648v1.18228H56.15248V20.2795H56.919V13.54837H56.15248V12.36609h3.39146Z"/><path class="cls-3" d="M61.80837,20.2795h0.76648V13.54837H61.80837V12.36609h3.39146v1.18228H64.43335V20.0065H67.6295V19.30512h1.52039v2.15666H61.80837V20.2795Z"/><path class="cls-3" d="M70.23278,20.2795h0.76648V13.54837H70.23278V12.36609h3.39146v1.18228H72.85776V20.0065H76.0539V19.30512h1.52039v2.15666H70.23278V20.2795Z"/><path class="cls-3" d="M45.72124,26.23542a1.96189,1.96189,0,0,0-.54527-0.18792,3.75469,3.75469,0,0,0-.71469-0.05845,1.14794,1.14794,0,0,0-.87746.2989,1.07858,1.07858,0,0,0-.27892.76648,0.91658,0.91658,0,0,0,.31148.72727,3.0346,3.0346,0,0,0,.78646.4809q0.47387,0.20864,1.02617.39656a5.29111,5.29111,0,0,1,1.02691.47424,2.60425,2.60425,0,0,1,.78572.72135,1.88365,1.88365,0,0,1,.31222,1.12383,2.64133,2.64133,0,0,1-.26043,1.18894,2.7402,2.7402,0,0,1-.70138.8967,3.20383,3.20383,0,0,1-1.02617.57116,3.75491,3.75491,0,0,1-1.23481.202,5.33378,5.33378,0,0,1-1.624-.22121,5.234,5.234,0,0,1-1.31249-.637V31.01705H42.915V32.135a3.11745,3.11745,0,0,0,1.351.24637,1.53341,1.53341,0,0,0,1.03357-.35069,1.171,1.171,0,0,0,.40914-0.93517,0.77958,0.77958,0,0,0-.31813-0.65625,3.56587,3.56587,0,0,0-.78646-0.435q-0.46721-.19532-1.02617-0.384a4.3216,4.3216,0,0,1-1.02691-.50014,2.8634,2.8634,0,0,1-.78572-0.77906,2.13131,2.13131,0,0,1-.31887-1.22149,2.5538,2.5538,0,0,1,.22121-1.0787,2.33054,2.33054,0,0,1,.61037-0.81235,2.84523,2.84523,0,0,1,.91-0.51271,3.31709,3.31709,0,0,1,1.10459-.182,6.3801,6.3801,0,0,1,.90261.05845,4.95987,4.95987,0,0,1,.76648.16869,4.06324,4.06324,0,0,1,.66956.273,7.05816,7.05816,0,0,1,.61037.35735v1.96208H45.72124V26.23542Z"/><path class="cls-3" d="M58.75564,24.63734v1.18228H57.98842v6.73114h0.76722V33.733H55.36417V32.55076h0.76648V29.84809H51.82992v2.70266H52.5964V33.733H49.20494V32.55076h0.76648V25.81962H49.20494V24.63734H52.5964v1.18228H51.82992v2.57319h4.30074V25.81962H55.36417V24.63734h3.39146Z"/><path class="cls-3" d="M60.11893,27.30154A4.34731,4.34731,0,0,1,61.08,25.82628a4.26361,4.26361,0,0,1,1.48783-.95514,5.28339,5.28339,0,0,1,1.9236-.33737,5.22919,5.22919,0,0,1,1.91621.33737,4.241,4.241,0,0,1,2.45556,2.4304,5.33626,5.33626,0,0,1,0,3.774,4.255,4.255,0,0,1-2.45556,2.42374,5.22922,5.22922,0,0,1-1.91621.33811,5.28345,5.28345,0,0,1-1.9236-.33811A4.26361,4.26361,0,0,1,61.08,32.5441a4.36228,4.36228,0,0,1-.96106-1.4686A5.33626,5.33626,0,0,1,60.11893,27.30154Zm1.72828,3.17025a3.03569,3.03569,0,0,0,.59706,1.00693,2.80662,2.80662,0,0,0,.90335.6629,2.698,2.698,0,0,0,1.1438.23971,2.771,2.771,0,0,0,1.1623-.23971,2.70645,2.70645,0,0,0,.90335-0.6629,3.09987,3.09987,0,0,0,.59114-1.00693,3.96485,3.96485,0,0,0,0-2.57319,3.10766,3.10766,0,0,0-.59114-1.00693,2.69439,2.69439,0,0,0-.90335-0.66216,2.75989,2.75989,0,0,0-1.1623-.24045,2.68728,2.68728,0,0,0-1.1438.24045,2.79362,2.79362,0,0,0-.90335.66216,3.04316,3.04316,0,0,0-.59706,1.00693A3.96485,3.96485,0,0,0,61.84722,30.47178Z"/><path class="cls-3" d="M74.72254,24.63734a3.2752,3.2752,0,0,1,1.22741.22121,2.85646,2.85646,0,0,1,.95514.617,2.736,2.736,0,0,1,.62369.94849,3.44631,3.44631,0,0,1,0,2.42966,2.67767,2.67767,0,0,1-.62369.94257,2.91039,2.91039,0,0,1-.95514.61037,3.2752,3.2752,0,0,1-1.22741.22121H72.85147v1.92286h0.76648V33.733H70.22649V32.55076H70.993V25.81962H70.22649V24.63734h4.49606Zm-1.87108,4.53527h1.66318a1.28774,1.28774,0,0,0,1.00693-.42911,1.59573,1.59573,0,0,0,.38324-1.10459,1.61433,1.61433,0,0,0-.38324-1.11717,1.28531,1.28531,0,0,0-1.00693-.42911H72.85147v3.08Z"/></svg>